<?xml version="1.0" encoding="iso-8859-1"?>
<!-- Generator: Adobe Illustrator 19.0.0, SVG Export Plug-In . SVG Version: 6.00 Build 0)  -->
<svg version="1.1" id="Layer_1" xmlns="http://www.w3.org/2000/svg" xmlns:xlink="http://www.w3.org/1999/xlink" x="0px" y="0px"
	 viewBox="0 0 305.265 305.265" style="enable-background:new 0 0 305.265 305.265;" xml:space="preserve">
<g>
	<g>
		<g>
			<path style="fill:#4EFFBB;" d="M269.734,18.664h-144.76c-2.231,0-4.339,0.893-5.881,2.516L48.314,95.447
				c-1.46,1.542-2.231,3.528-2.231,5.599v196.107c0,4.502,3.609,8.112,8.112,8.112h215.539c4.462,0,8.112-3.609,8.112-8.112V26.779
				C277.846,22.277,274.195,18.664,269.734,18.664z"/>
		</g>
		<g>
			<g id="XMLID_6_">
				<g>
					<g>
						<polygon style="fill:#302C58;" points="98.198,28.352 98.198,74.551 54.352,74.348 						"/>
					</g>
					<g>
						<path style="fill:#222051;" d="M259.181,8.112v270.376c0,4.502-3.65,8.112-8.112,8.112H35.53
							c-4.502,0-8.112-3.609-8.112-8.112V82.378c0-2.068,0.771-4.057,2.231-5.596l70.779-74.266C101.97,0.893,104.079,0,106.309,0
							h144.76C255.531,0,259.181,3.609,259.181,8.112z M242.957,270.376V16.224H114.421v66.477c0,2.149-0.852,4.217-2.394,5.759
							c-1.542,1.501-3.569,2.353-5.718,2.353h-0.041l-62.626-0.285v179.846h199.315V270.376z M98.198,74.551V28.352L54.352,74.348
							L98.198,74.551z"/>
					</g>
					<g>
						<path style="fill:#302C58;" d="M114.421,16.224v66.477c0,2.149-0.852,4.217-2.394,5.759c-1.542,1.501-3.569,2.353-5.718,2.353
							h-0.041l-62.626-0.285v179.846h199.312V16.224H114.421z M213.59,248.757H71.628c-4.462,0-8.112-3.65-8.112-8.112
							s3.65-8.112,8.112-8.112H213.59c4.502,0,8.112,3.65,8.112,8.112C221.702,245.107,218.092,248.757,213.59,248.757z
							 M213.59,208.439H71.628c-4.462,0-8.112-3.65-8.112-8.112c0-4.502,3.65-8.112,8.112-8.112H213.59
							c4.502,0,8.112,3.609,8.112,8.112C221.702,204.789,218.092,208.439,213.59,208.439z M213.59,168.083H71.628
							c-4.462,0-8.112-3.609-8.112-8.112c0-4.462,3.65-8.112,8.112-8.112H213.59c4.502,0,8.112,3.65,8.112,8.112
							C221.702,164.471,218.092,168.083,213.59,168.083z M213.59,127.766H71.628c-4.462,0-8.112-3.65-8.112-8.112
							c0-4.502,3.65-8.112,8.112-8.112H213.59c4.502,0,8.112,3.609,8.112,8.112C221.702,124.115,218.092,127.766,213.59,127.766z"/>
					</g>
				</g>
			</g>
		</g>
	</g>
</g>
<g>
</g>
<g>
</g>
<g>
</g>
<g>
</g>
<g>
</g>
<g>
</g>
<g>
</g>
<g>
</g>
<g>
</g>
<g>
</g>
<g>
</g>
<g>
</g>
<g>
</g>
<g>
</g>
<g>
</g>
</svg>
